<svg width="192" height="192" viewBox="0 0 192 192" fill="none" xmlns="http://www.w3.org/2000/svg">
<path d="M136 56L100 52L56 56L52 96L56 136L96 141L136 136L140 95L136 56Z" fill="white"/>
<path d="M72.41 118.06C69.42 116.04 67.35 113.09 66.22 109.19L73.16 106.33C73.79 108.73 74.89 110.59 76.46 111.91C78.02 113.23 79.92 113.88 82.14 113.88C84.41 113.88 86.36 113.19 87.99 111.81C89.62 110.43 90.44 108.67 90.44 106.54C90.44 104.36 89.58 102.58 87.86 101.2C86.14 99.82 83.98 99.13 81.4 99.13H77.39V92.26H80.99C83.21 92.26 85.08 91.66 86.6 90.46C88.12 89.26 88.88 87.62 88.88 85.53C88.88 83.67 88.2 82.19 86.84 81.08C85.48 79.97 83.76 79.41 81.67 79.41C79.63 79.41 78.01 79.95 76.81 81.04C75.61 82.13 74.74 83.47 74.19 85.05L67.32 82.19C68.23 79.61 69.9 77.33 72.35 75.36C74.8 73.39 77.93 72.4 81.73 72.4C84.54 72.4 87.07 72.94 89.31 74.03C91.55 75.12 93.31 76.63 94.58 78.55C95.85 80.48 96.48 82.64 96.48 85.04C96.48 87.49 95.89 89.56 94.71 91.26C93.53 92.96 92.08 94.26 90.36 95.17V95.58C92.63 96.53 94.48 97.98 95.94 99.93C97.39 101.88 98.12 104.21 98.12 106.93C98.12 109.65 97.43 112.08 96.05 114.21C94.67 116.34 92.76 118.02 90.34 119.24C87.91 120.46 85.18 121.08 82.15 121.08C78.64 121.09 75.4 120.08 72.41 118.06Z" fill="#1A73E8"/>
<path d="M115 83.62L107.42 89.13L103.61 83.35L117.28 73.49H122.52V120H115V83.62Z" fill="#1A73E8"/>
<path d="M136 172L172 136L154 128L136 136L128 154L136 172Z" fill="#EA4335"/>
<path d="M48 154L56 172H136V136H56L48 154Z" fill="#34A853"/>
<path d="M32 20C25.37 20 20 25.37 20 32V136L38 144L56 136V56H136L144 38L136 20H32Z" fill="#4285F4"/>
<path d="M20 136V160C20 166.63 25.37 172 32 172H56V136H20Z" fill="#188038"/>
<path d="M136 56V136H172V56L154 48L136 56Z" fill="#FBBC04"/>
<path d="M172 56V32C172 25.37 166.63 20 160 20H136V56H172Z" fill="#1967D2"/>
</svg>
