<svg width="192" height="192" viewBox="0 0 192 192" fill="none" xmlns="http://www.w3.org/2000/svg">
<path d="M134 98H58V112H134V98Z" fill="white"/>
<path d="M114 122H58V136H114V122Z" fill="white"/>
<path d="M116 52L136.62 53L160 52L116 8L115 34.86L116 52Z" fill="#0066DA"/>
<path d="M134 74H58V88H134V74Z" fill="white"/>
<path d="M116 52V8H44C37.37 8 32 13.37 32 20V172C32 178.63 37.37 184 44 184H148C154.63 184 160 178.63 160 172V52H116ZM112 134H60V124H112V134ZM132 110H60V100H132V110ZM132 86H60V76H132V86Z" fill="#2684FC"/>
</svg>
