<svg width="192" height="192" viewBox="0 0 192 192" fill="none" xmlns="http://www.w3.org/2000/svg">
<path d="M128.33 122L135.92 148.17L155.81 169.59C158.5 168.04 160.79 165.79 162.4 163L180.88 131C182.49 128.22 183.29 125.11 183.29 122L154.91 116.5L128.33 122Z" fill="#EA4335"/>
<path d="M123.48 18.41C120.79 16.86 117.7 16 114.48 16H77.53C74.33 16 71.21 16.88 68.53 18.41L76.49 45.22L95.93 65.86L96 66L115.58 45.11L123.48 18.41Z" fill="#188038"/>
<path d="M63.67 122L35.34 115.5L8.72 122C8.72 125.1 9.52 128.2 11.12 130.99L29.6 163C31.21 165.78 33.5 168.03 36.19 169.59L55.78 149.41L63.67 122Z" fill="#1967D2"/>
<path d="M155.47 69L130.07 25C128.46 22.21 126.17 19.96 123.48 18.41L96 66L128.33 122H183.28C183.28 118.89 182.48 115.79 180.87 113L155.47 69Z" fill="#FBBC04"/>
<path d="M128.33 122H63.67L36.19 169.59C38.88 171.14 41.97 172 45.19 172H146.8C150.02 172 153.11 171.14 155.8 169.59L128.33 122Z" fill="#4285F4"/>
<path d="M96 66L68.53 18.41C65.84 19.96 63.56 22.2 61.95 24.98L11.12 113.03C9.52 115.81 8.72 118.91 8.72 122H63.67L96 66Z" fill="#34A853"/>
</svg>
