<svg width="192" height="192" viewBox="0 0 192 192" fill="none" xmlns="http://www.w3.org/2000/svg">
<g clip-path="url(#clip0_3_88)">
<path d="M95.6666 96C95.6666 88.2203 98.7571 80.7593 104.258 75.2582C109.759 69.7571 117.22 66.6667 125 66.6667C132.78 66.6667 140.241 69.7571 145.742 75.2582C151.243 80.7593 154.333 88.2203 154.333 96C154.333 103.78 151.243 111.241 145.742 116.742C140.241 122.243 132.78 125.333 125 125.333C117.22 125.333 109.759 122.243 104.258 116.742C98.7571 111.241 95.6666 103.78 95.6666 96V96Z" fill="#1ABCFE"/>
<path d="M37 154.667C37 146.887 40.0905 139.426 45.5915 133.925C51.0926 128.424 58.5537 125.333 66.3333 125.333H95.6667V154.667C95.6667 162.446 92.5762 169.907 87.0751 175.408C81.5741 180.91 74.113 184 66.3333 184C58.5537 184 51.0926 180.91 45.5915 175.408C40.0905 169.907 37 162.446 37 154.667V154.667Z" fill="#0ACF83"/>
<path d="M95.6666 8V66.6667H125C132.78 66.6667 140.241 63.5762 145.742 58.0751C151.243 52.5741 154.333 45.113 154.333 37.3333C154.333 29.5537 151.243 22.0926 145.742 16.5915C140.241 11.0905 132.78 8 125 8L95.6666 8Z" fill="#FF7262"/>
<path d="M37 37.3333C37 45.113 40.0905 52.5741 45.5915 58.0751C51.0926 63.5762 58.5537 66.6667 66.3333 66.6667H95.6667V8H66.3333C58.5537 8 51.0926 11.0905 45.5915 16.5915C40.0905 22.0926 37 29.5537 37 37.3333V37.3333Z" fill="#F24E1E"/>
<path d="M37 96C37 103.78 40.0905 111.241 45.5915 116.742C51.0926 122.243 58.5537 125.333 66.3333 125.333H95.6667V66.6667H66.3333C58.5537 66.6667 51.0926 69.7571 45.5915 75.2582C40.0905 80.7593 37 88.2203 37 96V96Z" fill="#A259FF"/>
</g>
<defs>
<clipPath id="clip0_3_88">
<rect width="117.333" height="176" fill="white" transform="translate(37 8)"/>
</clipPath>
</defs>
</svg>
