<svg width="192" height="192" viewBox="0 0 192 192" fill="none" xmlns="http://www.w3.org/2000/svg">
<path fill-rule="evenodd" clip-rule="evenodd" d="M96 177.124L128.406 77.3881H63.5938L96 177.124Z" fill="#E24329"/>
<path fill-rule="evenodd" clip-rule="evenodd" d="M96 177.124L63.5938 77.3884H18.177L96 177.124Z" fill="#FC6D26"/>
<path fill-rule="evenodd" clip-rule="evenodd" d="M18.177 77.3883L8.32881 107.697C7.43066 110.462 8.41457 113.49 10.7664 115.198L96 177.124L18.177 77.3883Z" fill="#FCA326"/>
<path fill-rule="evenodd" clip-rule="evenodd" d="M18.177 77.3883H63.5938L44.0756 17.3182C43.0712 14.2273 38.6986 14.2273 37.6947 17.3182L18.177 77.3883Z" fill="#E24329"/>
<path fill-rule="evenodd" clip-rule="evenodd" d="M96 177.124L128.406 77.3884H173.823L96 177.124Z" fill="#FC6D26"/>
<path fill-rule="evenodd" clip-rule="evenodd" d="M173.823 77.3883L183.671 107.697C184.569 110.462 183.585 113.49 181.234 115.198L96 177.124L173.823 77.3883Z" fill="#FCA326"/>
<path fill-rule="evenodd" clip-rule="evenodd" d="M173.823 77.3883H128.406L147.924 17.3182C148.929 14.2273 153.301 14.2273 154.305 17.3182L173.823 77.3883Z" fill="#E24329"/>
</svg>
