<svg width="192" height="192" viewBox="0 0 192 192" fill="none" xmlns="http://www.w3.org/2000/svg">
<path d="M8 46V62L26.35 79.76L48 92L52 65.07L48 40L36.8 31.6C24.93 22.7 8 31.17 8 46Z" fill="#C5221F"/>
<path d="M144 40L140 65.4L144 92L163.65 82.27L184 62V46C184 31.17 167.07 22.7 155.2 31.6L144 40Z" fill="#FFBA00"/>
<path d="M20 160H48V92L8 62V148C8 154.63 13.37 160 20 160Z" fill="#2684FC"/>
<path d="M144 160H172C178.63 160 184 154.63 184 148V62L144 92V160Z" fill="#00AC47"/>
<path d="M96 76L48 40V92L96 128L144 92V40L96 76Z" fill="#E94235"/>
</svg>
