<svg width="192" height="192" viewBox="0 0 192 192" fill="none" xmlns="http://www.w3.org/2000/svg">
<path d="M52 48C76.3004 48 96 67.6995 96 92V96H12C10.9391 96 9.92172 95.5786 9.17158 94.8284C8.42143 94.0783 8 93.0609 8 92C8 67.6995 27.6996 48 52 48Z" fill="#FBBC04"/>
<path d="M144 52C144 76.3004 124.3 96 100 96H96V12C96 10.9391 96.4214 9.92172 97.1716 9.17158C97.9217 8.42143 98.9391 8 100 8C124.3 8 144 27.6996 144 52Z" fill="#EA4335"/>
<path d="M140 144C115.7 144 96 124.3 96 100V96H180C181.061 96 182.078 96.4214 182.828 97.1716C183.579 97.9217 184 98.9391 184 100C184 124.3 164.3 144 140 144Z" fill="#4285F4"/>
<path d="M48 140C48 115.7 67.6996 96 92 96H96V180C96 181.061 95.5786 182.078 94.8284 182.828C94.0783 183.579 93.0609 184 92 184C67.6996 184 48 164.3 48 140Z" fill="#34A853"/>
</svg>
